<?xml version="1.0" standalone="no"?><!DOCTYPE svg PUBLIC "-//W3C//DTD SVG 1.1//EN" "http://www.w3.org/Graphics/SVG/1.1/DTD/svg11.dtd"><svg t="1751653857906" class="icon" viewBox="0 0 1024 1024" version="1.1" xmlns="http://www.w3.org/2000/svg" p-id="14931" xmlns:xlink="http://www.w3.org/1999/xlink" width="200" height="200"><path d="M623.787 627.959l-94.815-274.205a25.22 25.22 0 0 0-9.482-12.99 39.159 39.159 0 0 0-40.58 0 25.22 25.22 0 0 0-9.482 12.99l-93.677 273.067c-4.267 12.515-3.508 21.238 2.086 26.453a31.194 31.194 0 0 0 22.376 7.775 30.815 30.815 0 0 0 21.523-6.637 44.847 44.847 0 0 0 11.283-17.446l20.101-52.148h92.065l21.713 54.518a43.046 43.046 0 0 0 10.43 15.55 28.444 28.444 0 0 0 21.048 6.163 32.142 32.142 0 0 0 22.377-8.06c5.688-5.214 6.637-13.463 3.034-25.03z m-159.194-94.341l35.176-112.83 34.892 112.83z m254.103 98.607a29.677 29.677 0 0 1-7.11 21.997 30.34 30.34 0 0 1-22.851 7.301 28.444 28.444 0 0 1-22.471-7.3 30.815 30.815 0 0 1-6.637-21.429v-268.42q0-29.014 29.013-29.014a33.564 33.564 0 0 1 22.471 5.973 27.117 27.117 0 0 1 7.775 22.187z" fill="#BFBFBF" p-id="14932"></path><path d="M555.804 56.889a410.074 410.074 0 0 0-409.41 409.41 35.46 35.46 0 0 0 0 4.93c-28.444 29.298-88.747 96.332-88.747 143.455 0 52.149 49.304 72.25 84.48 73.387l40.107 9.008 7.585 197.025a73.766 73.766 0 0 0 74.145 73.007h150.282a29.298 29.298 0 1 0 0-58.5H263.964a14.98 14.98 0 0 1-14.885-14.887l-9.482-243.768-87.04-18.963-3.034-0.664h-3.319a64.948 64.948 0 0 1-19.91-4.551c-9.482-3.793-9.482-7.301-9.482-10.62 0-16.971 37.262-68.171 79.55-109.7a29.298 29.298 0 0 0 7.3-29.772 28.444 28.444 0 0 0 1.422-9.007 350.815 350.815 0 0 1 701.63 0c0 16.308 29.298 29.297 29.298 29.297s29.298-12.99 29.298-29.297a409.98 409.98 0 0 0-409.506-409.79z" fill="#BFBFBF" p-id="14933"></path><path d="M860.729 291.271s146.3 247.751-81.92 485.452c0 0-11.283 50.726 47.407 36.124 0 0 163.556-134.542 136.913-392.438z" fill="#BFBFBF" p-id="14934"></path></svg>