<?xml version="1.0" standalone="no"?><!DOCTYPE svg PUBLIC "-//W3C//DTD SVG 1.1//EN" "http://www.w3.org/Graphics/SVG/1.1/DTD/svg11.dtd"><svg t="1751653603616" class="icon" viewBox="0 0 1024 1024" version="1.1" xmlns="http://www.w3.org/2000/svg" p-id="14781" xmlns:xlink="http://www.w3.org/1999/xlink" width="200" height="200"><path d="M938.635379 554.682311v-79.528016H334.324856a170.660978 170.660978 0 1 1 2.986567-85.330489H938.635379V298.690844H508.825706a68.264391 68.264391 0 0 1-68.264391-68.264392v-72.104263H252.407586a127.995733 127.995733 0 1 1-8.78904-85.330489h214.008866a68.264391 68.264391 0 0 1 68.264392 68.264391V213.360355H938.635379v-170.660978a42.665244 42.665244 0 1 1 85.330489 0v938.635379a42.665244 42.665244 0 1 1-85.330489 0V755.635612H723.090564v128.849039a68.264391 68.264391 0 0 1-68.264392 68.264391h-412.146261a127.995733 127.995733 0 1 1 10.154328-85.330489h384.925836v-111.782941H508.399053a127.995733 127.995733 0 1 1-8.78904-85.330489h138.235392V622.946702a68.264391 68.264391 0 0 1 68.264391-68.264391H938.635379z m0 85.330489H723.090564v30.292323H938.635379V640.0128zM170.660978 512.017066a85.330489 85.330489 0 1 0 0-170.660978 85.330489 85.330489 0 0 0 0 170.660978z m-42.665245 426.652445a42.665244 42.665244 0 1 0 0-85.330489 42.665244 42.665244 0 0 0 0 85.330489z m255.991467-170.660978a42.665244 42.665244 0 1 0 0-85.330489 42.665244 42.665244 0 0 0 0 85.330489z m-255.991467-597.313423a42.665244 42.665244 0 1 0 0-85.330489 42.665244 42.665244 0 0 0 0 85.330489z" fill="#5883FF" p-id="14782"></path></svg>