<?xml version="1.0" standalone="no"?><!DOCTYPE svg PUBLIC "-//W3C//DTD SVG 1.1//EN" "http://www.w3.org/Graphics/SVG/1.1/DTD/svg11.dtd"><svg t="1751653131656" class="icon" viewBox="0 0 1024 1024" version="1.1" xmlns="http://www.w3.org/2000/svg" p-id="7295" xmlns:xlink="http://www.w3.org/1999/xlink" width="200" height="200"><path d="M1016.372638 238.600188l0 10.400323c-0.199543 0.412848-0.557344 0.813654-0.583147 1.233383-0.244268 4.549926-0.254589 9.110173-0.681199 13.641177-0.682919 7.285042-1.186937 14.632012-2.544174 21.810402-2.638785 13.993818-6.129069 27.786373-11.219137 41.148878-5.418627 14.217444-11.860771 27.923989-19.857976 40.880527-10.646311 17.241554-22.952614 33.177476-38.018116 46.810052-6.865314 6.209918-13.821798 12.349308-21.120602 18.027684-16.102782 12.547131-33.958446 22.149281-52.799785 29.859212-11.982906 4.902567-24.394141 8.551109-37.075447 11.367074-12.295982 2.724795-24.659051 4.543045-37.256068 4.622174-11.822927 0.079129-23.656175 0.201263-35.473942-0.048166-7.997205-0.163419-14.449671 2.883053-19.899261 8.349845-34.464185 34.612122-68.807956 69.351539-103.332348 103.900013-126.336568 126.400215-252.726461 252.759145-379.109475 379.109475-3.655423 3.655423-7.462223 7.173229-11.269023 10.660073-9.431851 8.640559-19.911302 15.73638-31.321382 21.548932-12.631421 6.423223-25.802983 11.083241-39.884532 13.06319-3.605537 0.504018-7.18183 1.202419-10.777046 1.807929L135.395135 1016.792367c-2.9381-0.409407-5.900282-0.68808-8.812579-1.259186-14.552883-2.85209-28.529499-7.297084-41.544524-14.638893-16.159548-9.125655-30.079398-20.84709-41.520441-35.387932-11.207096-14.238086-19.673915-30.022631-24.946324-47.413842-4.389948-14.466873-6.421502-29.286386-5.44959-44.379411 0.481656-7.475984 1.388201-14.991533 2.901976-22.319581 2.869292-13.856202 8.112458-26.857465 15.160113-39.17409 6.454186-11.282785 13.709985-22.009945 22.863164-31.168284 161.12759-161.292729 322.366994-322.487408 483.580594-483.701008 0.86526-0.86354 1.752883-1.709878 2.59234-2.59578 5.769547-6.125628 7.551673-13.525924 6.875635-21.695149-0.796452-9.729445-1.981669-19.441688-2.284424-29.191775-0.225346-7.140546 0.376724-14.35334 1.164575-21.468082 1.159414-10.338395 2.150249-20.762801 4.391668-30.894772 4.75807-21.497326 12.428437-41.988335 23.052385-61.381857 10.0322-18.316678 22.302379-34.981965 36.653998-50.045747 6.891117-7.229996 14.262169-14.152076 22.168203-20.23986 9.467975-7.285042 19.618868-13.732348 29.704395-20.172772 12.168687-7.773579 25.305846-13.725467 38.996909-18.208305 11.32923-3.705308 22.809837-7.248918 34.488268-9.560865 11.864212-2.348071 24.008816-3.614138 36.093213-4.415751 13.424432-0.894503 26.780056 1.076845 40.054831 2.986265 7.620481 1.095767 14.740384 3.775837 20.415321 9.230587 9.16522 8.81946 10.777046 20.988147 6.411181 32.68894-3.381911 9.043086-9.318317 16.34189-15.941083 23.079909-12.97202 13.190485-26.126381 26.195189-39.208493 39.2687-13.914689 13.916409-27.853461 27.807015-41.732025 41.757828-6.113587 6.14283-11.957103 12.529929-16.378014 20.047198-6.732858 11.444483-9.321758 23.552963-6.220239 36.733127 2.828007 12.029351 9.474856 21.856847 17.884908 30.401075 17.356807 17.632039 35.152264 34.834028 52.710335 52.278565 5.778148 5.735143 12.424997 10.138852 19.784008 13.481199 8.30168 3.784438 17.167585 4.983416 26.043811 3.619298 12.867088-1.971348 23.577046-8.613036 32.721623-17.668163 17.250155-17.071254 34.273243-34.373014 51.533719-51.427066 14.102191-13.933611 28.168257-27.915388 42.741782-41.357022 7.565435-6.982287 16.821825-10.783927 27.574788-8.659481 11.747238 2.325709 21.170488 8.695605 23.938288 22.106276 1.286709 6.258084 1.29359 12.770757 1.919742 19.164736C1015.885822 236.350168 1016.167934 237.466577 1016.372638 238.600188L1016.372638 238.600188zM147.042602 812.458541c-39.26354-0.486816-68.789034 32.324257-70.978847 65.72708-2.993146 45.554307 33.356377 76.689907 69.587206 77.32122 41.1678 0.715603 72.420374-32.482516 72.816019-70.954764C218.872947 844.751834 186.526327 811.880554 147.042602 812.458541L147.042602 812.458541zM147.042602 812.458541" fill="#272635" p-id="7296"></path><path d="M139.06948 6.729418c3.947856 0.808493 7.973122 1.369278 11.834968 2.482247 6.677812 1.928343 13.436474 3.763795 19.837334 6.411181 14.87628 6.154872 27.308158 15.896358 38.539336 27.318479 6.562559 6.65889 13.40551 13.044268 20.119446 19.553501 6.567719 6.366456 13.178444 12.686467 19.697998 19.107969 17.478941 17.224352 34.987125 34.4229 52.350813 51.767666 14.048864 14.029942 27.908507 28.243946 41.823196 42.402903 8.915791 9.067168 17.788577 18.177342 26.675124 27.275474 8.458218 8.654321 16.912996 17.320683 25.366053 25.980164 8.38597 8.587233 16.754737 17.186507 25.152748 25.763419 10.973149 11.196775 21.985862 22.336783 32.921167 33.564521 3.744873 3.844645 7.297084 7.87163 11.091842 11.974305-12.447359 12.168687-24.963526 24.406182-37.675796 36.831179-4.231689-4.677221-8.422094-9.311437-12.617659-13.938772-0.614111-0.681199-1.259186-1.333154-1.909421-1.976509-16.073539-16.082139-32.17288-32.136756-48.227496-48.239538-65.305631-65.494853-130.575138-131.02927-195.965058-196.444994-4.622174-4.627335-9.474856-9.208225-16.049456-11.372235-8.99492-2.969063-17.303481 5.296492-18.493858 11.724876-1.407123 7.601559 2.619863 13.130278 7.321167 18.056928 9.006961 9.438731 18.390646 18.517941 27.622954 27.750249 72.026448 72.024728 144.037414 144.063217 216.094826 216.058702 7.114743 7.109582 14.504717 13.943932 21.96694 21.1034-15.160113 14.554603-30.132724 28.925144-45.483779 43.668969-1.429485-1.940384-2.724795-3.763795-4.087193-5.542481-1.465609-1.90254-2.828007-3.922053-4.517242-5.613009-62.770058-62.830265-125.593442-125.595162-188.351458-188.435748-21.089638-21.115441-41.952211-42.46311-63.091735-63.528666-3.282139-3.276979-7.254079-6.044779-11.312028-8.325763-10.646311-5.989733-21.096519 2.688671-22.095955 12.388872-0.443811 4.341782 1.81309 8.349845 4.312539 11.896896 1.506894 2.127886 3.36987 4.032146 5.217363 5.886521 84.780003 84.804085 169.558285 169.59613 254.386453 254.343448 3.332025 3.332025 7.114743 6.2254 10.568902 9.225427-8.21739 7.923236-16.212875 15.708856-24.297809 23.398145-4.617014 4.383067-9.421529 8.573471-14.048864 12.946217-1.460449 1.374439-2.329149 0.875581-3.526408-0.306195-7.109582-6.982287-14.365381-13.811477-21.414756-20.853971-77.6687-77.627416-155.339121-155.258272-232.916651-232.976858-8.093536-8.107297-14.633732-17.490982-20.306948-27.483618-6.617605-11.652627-10.863056-24.12579-13.634296-37.159737-0.572826-2.705873-0.913426-5.468512-1.362398-8.205349l0-23.859159c0.218465-1.429485 0.378444-2.869292 0.662277-4.281575 1.928343-9.566026 4.362424-18.925628 8.332643-27.946351 5.372181-12.204811 12.447359-23.243328 21.268539-33.103508 8.210509-9.175541 17.516785-17.155544 28.207822-23.463513 11.341271-6.689854 23.406746-11.408359 36.318559-13.988657 3.264938-0.650235 6.550517-1.228222 9.827496-1.835452C123.16108 6.729418 131.11528 6.729418 139.06948 6.729418L139.06948 6.729418zM139.06948 6.729418" fill="#272635" p-id="7297"></path><path d="M620.484344 674.754899c18.860261-18.858541 37.455611-37.457331 56.351996-56.353716 0.823975 0.584868 1.868136 1.138772 2.68179 1.924903 7.61188 7.345249 15.254724 14.649214 22.74275 22.120038 29.585701 29.518613 59.149039 59.07163 88.672813 88.667652 9.120495 9.144577 18.041446 18.485257 27.117215 27.684881 5.61817 5.692138 11.810886 10.677275 19.531138 13.159522 3.953017 1.269507 8.12622 2.045316 12.259858 2.50977 11.809165 1.324553 22.646418 5.315415 32.931488 11.114205 9.712243 5.466792 17.893509 12.824083 25.161349 21.082758 5.332617 6.067142 10.021879 12.736353 14.621691 19.395243 11.339551 16.43306 22.732428 32.842037 33.624728 49.572692 12.180728 18.731246 23.86948 37.780728 35.704448 56.730439 4.653138 7.451902 9.354442 14.87972 13.606773 22.553528 6.39742 11.561457 8.532187 24.610886 0.356081 35.690687-5.471953 7.419218-12.830964 13.009864-21.344228 16.610241-4.959333 2.090042-10.236904 0.557344-15.332133-0.560785-9.846418-2.16401-18.039726-7.969681-26.857465-12.344147-6.701895-3.330305-13.152641-7.166349-19.617148-10.949066-9.646875-5.643973-19.340196-11.215697-28.756565-17.232953-10.849294-6.92036-21.576455-14.078108-32.067948-21.545491-10.746083-7.649724-21.313264-15.586722-31.631017-23.810993-8.816019-7.011531-17.55979-14.198522-25.643005-22.027147-13.773633-13.341863-22.300659-29.83513-26.817901-48.43392-1.407123-5.788469-2.616423-11.635425-4.223088-17.363688-1.658272-5.936406-5.367021-10.758124-9.633114-15.027658-46.95799-47.040559-93.974466-94.026072-140.985781-141.021906C622.152936 676.119016 621.270474 675.439538 620.484344 674.754899L620.484344 674.754899zM620.484344 674.754899" fill="#272635" p-id="7298"></path></svg>